<svg xmlns="http://www.w3.org/2000/svg" viewBox="0 0 50.75 50.75"><defs><style>.\33 579dc7e-5f94-4321-af5e-309e4db2a5b1{fill:#ff8f45;}.\36 89f7c69-9837-4b3d-bd55-9d82b4afe71d{fill:#d17539;}.c26596da-9fcc-4db6-9e84-05154d82827c{fill:#fff;}</style></defs><title>dynamique</title><g id="95cb9480-ea22-4aa5-89f3-338bb2882398" data-name="Calque 2"><g id="3e157422-3164-45c0-973e-2963f094d93f" data-name="Calque 1"><circle class="3579dc7e-5f94-4321-af5e-309e4db2a5b1" cx="25.38" cy="25.38" r="25.38"/><path class="689f7c69-9837-4b3d-bd55-9d82b4afe71d" d="M21.89,38.08a.6.6,0,0,1,1.12.43l-2,5.07c-.25.65-1.37.22-1.11-.44Z"/><path class="689f7c69-9837-4b3d-bd55-9d82b4afe71d" d="M20.38,36.05a.6.6,0,0,1,1.12.43L20,40.3c-.25.65-1.37.21-1.11-.44Z"/><path class="689f7c69-9837-4b3d-bd55-9d82b4afe71d" d="M24.43,37.63a.6.6,0,0,1,1.12.43l-1.49,3.81c-.25.66-1.37.22-1.11-.43Z"/><path class="689f7c69-9837-4b3d-bd55-9d82b4afe71d" d="M20,29.57,15,30.91c2.37-5.86,2.71-5.81,6-7.36A22.64,22.64,0,0,0,20,29.57Z"/><path class="689f7c69-9837-4b3d-bd55-9d82b4afe71d" d="M30.5,33.73,33.16,38c2.21-5.91,1.93-6.11.62-9.46A32,32,0,0,1,30.5,33.73Z"/><path class="689f7c69-9837-4b3d-bd55-9d82b4afe71d" d="M27.19,35.76h0a.83.83,0,0,1-1.06.47l-5.13-2a.81.81,0,0,1-.47-1h0a.82.82,0,0,1,1.06-.47l5.13,2A.83.83,0,0,1,27.19,35.76Z"/><path class="689f7c69-9837-4b3d-bd55-9d82b4afe71d" d="M35.7,18.52c.16-9.9-2.6-10.89-9.08-3.55-2.45,2.81-5.57,12-5.13,16.16l7,2.72C31.65,31,35.6,22.25,35.7,18.52Zm-7.27,5.19a3.31,3.31,0,1,1,4.2-1.92A3.27,3.27,0,0,1,28.43,23.71Z"/><path class="689f7c69-9837-4b3d-bd55-9d82b4afe71d" d="M31.18,21.2a1.58,1.58,0,1,1-.9-2.05A1.58,1.58,0,0,1,31.18,21.2Z"/><path class="c26596da-9fcc-4db6-9e84-05154d82827c" d="M19.28,35.8a.6.6,0,0,1,1.11.44l-2,5.06c-.26.65-1.37.22-1.12-.43Z"/><path class="c26596da-9fcc-4db6-9e84-05154d82827c" d="M17.77,33.77a.6.6,0,0,1,1.12.44L17.4,38c-.25.65-1.37.22-1.11-.44Z"/><path class="c26596da-9fcc-4db6-9e84-05154d82827c" d="M21.82,35.35a.6.6,0,0,1,1.12.44L21.45,39.6c-.25.65-1.37.22-1.11-.44Z"/><path class="c26596da-9fcc-4db6-9e84-05154d82827c" d="M17.37,27.29l-4.94,1.34c2.37-5.85,2.71-5.8,6-7.36A23.07,23.07,0,0,0,17.37,27.29Z"/><path class="c26596da-9fcc-4db6-9e84-05154d82827c" d="M27.89,31.45l2.66,4.3c2.21-5.91,1.93-6.11.62-9.46A32.66,32.66,0,0,1,27.89,31.45Z"/><path class="c26596da-9fcc-4db6-9e84-05154d82827c" d="M24.57,33.49h0a.81.81,0,0,1-1.06.46l-5.13-2a.81.81,0,0,1-.46-1.06h0A.82.82,0,0,1,19,30.42l5.13,2A.81.81,0,0,1,24.57,33.49Z"/><path class="c26596da-9fcc-4db6-9e84-05154d82827c" d="M33.09,16.24C33.25,6.35,30.48,5.35,24,12.7c-2.45,2.81-5.57,12-5.13,16.16l7,2.71C29,28.72,33,20,33.09,16.24Zm-7.27,5.19A3.31,3.31,0,1,1,30,19.52,3.25,3.25,0,0,1,25.82,21.43Z"/><path class="c26596da-9fcc-4db6-9e84-05154d82827c" d="M28.57,18.92a1.58,1.58,0,1,1-.9-2.05A1.59,1.59,0,0,1,28.57,18.92Z"/></g></g></svg>