<svg xmlns="http://www.w3.org/2000/svg" viewBox="0 0 50.75 50.75"><defs><style>.\38 2a32df1-e05f-4a00-bae8-33f0dfb45cd5{fill:#cca8ff;}.c9746c84-d64e-4015-a06d-b4d0e24ae77e{opacity:0.29;}.\32 5886f7d-3fe4-4d13-a46c-a99b62330085{fill:#7b3dcc;}.f11d7cc3-c33f-41a1-bbba-5d38105420f0{fill:#fff;}</style></defs><title>conventionnel</title><g id="35d4a87d-4972-48e2-b44b-8b4f1860f40f" data-name="Calque 2"><g id="71cd6e77-4480-4776-a94e-65995596f406" data-name="Calque 1"><path class="82a32df1-e05f-4a00-bae8-33f0dfb45cd5" d="M50.75,25.38A25.38,25.38,0,1,1,25.38,0,25.37,25.37,0,0,1,50.75,25.38Z"/><g class="c9746c84-d64e-4015-a06d-b4d0e24ae77e"><path class="25886f7d-3fe4-4d13-a46c-a99b62330085" d="M28,15.34h9.66a.6.6,0,1,0,0-1.2H28a.6.6,0,0,0,0,1.2Z"/><path class="25886f7d-3fe4-4d13-a46c-a99b62330085" d="M28,17.94h5.52a.61.61,0,0,0,0-1.21H28a.61.61,0,0,0,0,1.21Z"/><path class="25886f7d-3fe4-4d13-a46c-a99b62330085" d="M28,25.07h9.66a.61.61,0,0,0,0-1.21H28a.61.61,0,0,0,0,1.21Z"/><path class="25886f7d-3fe4-4d13-a46c-a99b62330085" d="M28,27.6h5.82a.6.6,0,1,0,0-1.2H28a.6.6,0,0,0,0,1.2Z"/><path class="25886f7d-3fe4-4d13-a46c-a99b62330085" d="M28,36.94h9.66a.61.61,0,0,0,0-1.21H28a.61.61,0,0,0,0,1.21Z"/><path class="25886f7d-3fe4-4d13-a46c-a99b62330085" d="M28,39.53h6.12a.6.6,0,1,0,0-1.2H28a.6.6,0,0,0,0,1.2Z"/><path class="25886f7d-3fe4-4d13-a46c-a99b62330085" d="M23.14,19.67H18a1.37,1.37,0,0,1-1.37-1.37V13.18A1.37,1.37,0,0,1,18,11.81h5.12a1.37,1.37,0,0,1,1.37,1.37V18.3A1.38,1.38,0,0,1,23.14,19.67Z"/><path class="25886f7d-3fe4-4d13-a46c-a99b62330085" d="M23.14,30.33H18A1.37,1.37,0,0,1,16.65,29V23.84A1.37,1.37,0,0,1,18,22.47h5.12a1.37,1.37,0,0,1,1.37,1.37V29A1.38,1.38,0,0,1,23.14,30.33Z"/><path class="25886f7d-3fe4-4d13-a46c-a99b62330085" d="M23.14,41.53H18a1.37,1.37,0,0,1-1.37-1.37V35A1.37,1.37,0,0,1,18,33.67h5.12A1.37,1.37,0,0,1,24.51,35v5.12A1.38,1.38,0,0,1,23.14,41.53Z"/></g><path class="f11d7cc3-c33f-41a1-bbba-5d38105420f0" d="M22.35,32.69H17.23a1.38,1.38,0,0,0-1.37,1.37v5.12a1.37,1.37,0,0,0,1.37,1.37h5.12a1.37,1.37,0,0,0,1.37-1.37V34.06A1.37,1.37,0,0,0,22.35,32.69ZM22.11,36a6.3,6.3,0,0,0-2.46,2.21.56.56,0,0,1-.41.27h-.07a.52.52,0,0,1-.39-.17L17.53,37a.57.57,0,0,1,0-.79.56.56,0,0,1,.78,0l.79.87A7.21,7.21,0,0,1,21.64,35a.56.56,0,0,1,.74.27A.55.55,0,0,1,22.11,36Z"/><path class="f11d7cc3-c33f-41a1-bbba-5d38105420f0" d="M22.25,10.77H17.12a1.36,1.36,0,0,0-1.36,1.36v5.13a1.36,1.36,0,0,0,1.36,1.36h5.13a1.36,1.36,0,0,0,1.36-1.36V12.13A1.36,1.36,0,0,0,22.25,10.77ZM22,14a6.21,6.21,0,0,0-2.46,2.22.57.57,0,0,1-.41.26h-.07a.59.59,0,0,1-.39-.16L17.42,15a.56.56,0,0,1,0-.78.56.56,0,0,1,.79,0l.78.86A7.26,7.26,0,0,1,21.54,13,.55.55,0,1,1,22,14Z"/><path class="f11d7cc3-c33f-41a1-bbba-5d38105420f0" d="M22.35,21.49H17.23a1.38,1.38,0,0,0-1.37,1.37V28a1.37,1.37,0,0,0,1.37,1.37h5.12A1.37,1.37,0,0,0,23.72,28V22.86A1.37,1.37,0,0,0,22.35,21.49Zm-.24,3.26A6.3,6.3,0,0,0,19.65,27a.56.56,0,0,1-.41.27h-.07a.52.52,0,0,1-.39-.17l-1.25-1.33a.55.55,0,0,1,.78-.78l.79.87a7.21,7.21,0,0,1,2.54-2.08.56.56,0,0,1,.74.27A.55.55,0,0,1,22.11,24.75Z"/><path class="f11d7cc3-c33f-41a1-bbba-5d38105420f0" d="M27.14,14.3h9.65a.61.61,0,0,0,0-1.21H27.14a.61.61,0,1,0,0,1.21Z"/><path class="f11d7cc3-c33f-41a1-bbba-5d38105420f0" d="M27.14,16.89h5.51a.6.6,0,1,0,0-1.2H27.14a.6.6,0,1,0,0,1.2Z"/><path class="f11d7cc3-c33f-41a1-bbba-5d38105420f0" d="M27.14,24h9.65a.6.6,0,1,0,0-1.2H27.14a.6.6,0,1,0,0,1.2Z"/><path class="f11d7cc3-c33f-41a1-bbba-5d38105420f0" d="M27.14,26.56H33a.61.61,0,0,0,0-1.21H27.14a.61.61,0,1,0,0,1.21Z"/><path class="f11d7cc3-c33f-41a1-bbba-5d38105420f0" d="M27.14,35.89h9.65a.6.6,0,0,0,0-1.2H27.14a.6.6,0,1,0,0,1.2Z"/><path class="f11d7cc3-c33f-41a1-bbba-5d38105420f0" d="M27.14,38.49h6.12a.61.61,0,0,0,0-1.21H27.14a.61.61,0,1,0,0,1.21Z"/></g></g></svg>